<svg width="20" height="20" viewBox="0 0 20 20" fill="none" xmlns="http://www.w3.org/2000/svg">
<path d="M4.33672 14.3376L12.7344 5.93763H6.875C6.62636 5.93763 6.3879 5.83886 6.21209 5.66304C6.03627 5.48723 5.9375 5.24877 5.9375 5.00013C5.9375 4.75149 6.03627 4.51303 6.21209 4.33722C6.3879 4.1614 6.62636 4.06263 6.875 4.06263H15C15.2486 4.06263 15.4871 4.1614 15.6629 4.33722C15.8387 4.51303 15.9375 4.75149 15.9375 5.00013V13.1251C15.9375 13.3738 15.8387 13.6122 15.6629 13.788C15.4871 13.9639 15.2486 14.0626 15 14.0626C14.7514 14.0626 14.5129 13.9639 14.3371 13.788C14.1613 13.6122 14.0625 13.3738 14.0625 13.1251V7.26576L5.66328 15.6634C5.57608 15.7506 5.47255 15.8198 5.35861 15.867C5.24467 15.9142 5.12255 15.9385 4.99922 15.9385C4.87589 15.9385 4.75377 15.9142 4.63983 15.867C4.52589 15.8198 4.42236 15.7506 4.33516 15.6634C4.24795 15.5762 4.17877 15.4727 4.13158 15.3587C4.08438 15.2448 4.06009 15.1227 4.06009 14.9994C4.06009 14.876 4.08438 14.7539 4.13158 14.64C4.17877 14.526 4.24795 14.4225 4.33516 14.3353L4.33672 14.3376Z" fill="black"/>
</svg>
